<svg width="50" height="50" viewBox="0 0 50 50" fill="none" xmlns="http://www.w3.org/2000/svg">
<path d="M27.5 22.075V37.5H22.5V22.075L16.025 28.525L12.5 25L25 12.5L37.5 25L33.975 28.525L27.5 22.075Z" fill="#FFC700"/>
<path fill-rule="evenodd" clip-rule="evenodd" d="M25 50C11.1929 50 -6.03528e-07 38.8071 0 25C6.03528e-07 11.1929 11.1929 -6.03528e-07 25 0C38.8071 6.03528e-07 50 11.1929 50 25C50 38.8071 38.8071 50 25 50Z" fill="#FFC700"/>
<path d="M27.5 22.075V37.5H22.5V22.075L16.025 28.525L12.5 25L25 12.5L37.5 25L33.975 28.525L27.5 22.075Z" fill="white"/>
</svg>
